<svg xmlns="http://www.w3.org/2000/svg" class="editor-view__logo-preview" data-v-04588dbe="" data-v-0a059b40="" width="285.6499938964844" height="128.7333221435547" viewBox="0 0 285.6499938964844 128.7333221435547"><svg id="mark" viewBox="0 0 32 32" width="54" height="54" style="fill: rgb(255, 255, 255);" x="115.82499694824219" y="0" data-v-04588dbe=""><rect x="0" y="0" width="100%" height="100%" fill="none" data-v-04588dbe=""></rect><g data-v-04588dbe=""><g xmlns="http://www.w3.org/2000/svg"><g><polygon points="9.382,8.675 23.325,8.675 23.325,22.618 32,31.293 32,0 0.707,0   "></polygon><polygon points="22.618,23.325 8.675,23.325 8.675,9.382 0,0.707 0,32 31.293,32   "></polygon></g></g></g></svg><svg id="name" viewBox="0 0 285.6357421875 44.3154296875" width="285.6357421875" height="44.3154296875" style="fill: rgb(255, 255, 255);" x="0" y="62" data-v-04588dbe=""><rect x="0" y="0" width="100%" height="100%" fill="none" data-v-04588dbe=""></rect><g data-v-04588dbe=""><path xmlns="http://www.w3.org/2000/svg" d="M19.92 23.61L26.66 23.61Q26.28 28.88 22.76 31.92Q19.25 34.95 13.50 34.95L13.50 34.95Q7.21 34.95 3.60 30.72Q0 26.48 0 19.09L0 19.09L0 17.09Q0 12.38 1.66 8.78Q3.32 5.19 6.41 3.27Q9.50 1.35 13.59 1.35L13.59 1.35Q19.25 1.35 22.71 4.38Q26.17 7.41 26.71 12.89L26.71 12.89L19.97 12.89Q19.72 9.73 18.20 8.30Q16.69 6.87 13.59 6.87L13.59 6.87Q10.22 6.87 8.55 9.29Q6.87 11.70 6.83 16.78L6.83 16.78L6.83 19.25Q6.83 24.55 8.43 27.00Q10.04 29.45 13.50 29.45L13.50 29.45Q16.62 29.45 18.16 28.02Q19.70 26.59 19.92 23.61L19.92 23.61ZM35.22 10.20L39.73 25.31L44.23 10.20L51.19 10.20L41.42 38.27L40.88 39.55Q38.70 44.32 33.69 44.32L33.69 44.32Q32.28 44.32 30.82 43.89L30.82 43.89L30.82 38.97L31.80 38.99Q33.65 38.99 34.56 38.43Q35.47 37.87 35.98 36.57L35.98 36.57L36.75 34.57L28.23 10.20L35.22 10.20ZM75.65 22.21L75.65 22.57Q75.65 28.41 73.16 31.68Q70.66 34.95 66.19 34.95L66.19 34.95Q62.24 34.95 59.88 31.92L59.88 31.92L59.59 34.50L53.75 34.50L53.75 0L60.24 0L60.24 12.38Q62.49 9.75 66.15 9.75L66.15 9.75Q70.59 9.75 73.12 13.02Q75.65 16.28 75.65 22.21L75.65 22.21ZM69.16 22.10L69.16 22.10Q69.16 18.42 67.99 16.72Q66.82 15.03 64.51 15.03L64.51 15.03Q61.41 15.03 60.24 17.56L60.24 17.56L60.24 27.16Q61.43 29.72 64.55 29.72L64.55 29.72Q67.70 29.72 68.69 26.62L68.69 26.62Q69.16 25.13 69.16 22.10ZM90.83 34.95L90.83 34.95Q85.49 34.95 82.13 31.67Q78.77 28.39 78.77 22.93L78.77 22.93L78.77 22.30Q78.77 18.64 80.19 15.76Q81.60 12.87 84.19 11.31Q86.79 9.75 90.11 9.75L90.11 9.75Q95.10 9.75 97.96 12.89Q100.83 16.04 100.83 21.81L100.83 21.81L100.83 24.46L85.35 24.46Q85.67 26.84 87.25 28.28Q88.83 29.72 91.26 29.72L91.26 29.72Q95.01 29.72 97.12 27.00L97.12 27.00L100.31 30.57Q98.85 32.64 96.36 33.79Q93.86 34.95 90.83 34.95ZM90.09 15.00L90.09 15.00Q88.16 15.00 86.96 16.31Q85.76 17.61 85.42 20.04L85.42 20.04L94.45 20.04L94.45 19.52Q94.40 17.36 93.28 16.18Q92.16 15.00 90.09 15.00ZM118.26 10.04L118.17 16.28Q116.84 16.10 115.83 16.10L115.83 16.10Q112.15 16.10 111.00 18.60L111.00 18.60L111.00 34.50L104.51 34.50L104.51 10.20L110.64 10.20L110.82 13.09Q112.78 9.75 116.24 9.75L116.24 9.75Q117.31 9.75 118.26 10.04L118.26 10.04ZM154.64 22.21L154.64 22.57Q154.64 28.41 152.15 31.68Q149.66 34.95 145.19 34.95L145.19 34.95Q141.23 34.95 138.88 31.92L138.88 31.92L138.58 34.50L132.74 34.50L132.74 0L139.24 0L139.24 12.38Q141.48 9.75 145.14 9.75L145.14 9.75Q149.59 9.75 152.12 13.02Q154.64 16.28 154.64 22.21L154.64 22.21ZM148.15 22.10L148.15 22.10Q148.15 18.42 146.98 16.72Q145.82 15.03 143.50 15.03L143.50 15.03Q140.40 15.03 139.24 17.56L139.24 17.56L139.24 27.16Q140.43 29.72 143.55 29.72L143.55 29.72Q146.69 29.72 147.68 26.62L147.68 26.62Q148.15 25.13 148.15 22.10ZM172.39 10.04L172.30 16.28Q170.97 16.10 169.96 16.10L169.96 16.10Q166.28 16.10 165.13 18.60L165.13 18.60L165.13 34.50L158.64 34.50L158.64 10.20L164.77 10.20L164.95 13.09Q166.91 9.75 170.37 9.75L170.37 9.75Q171.44 9.75 172.39 10.04L172.39 10.04ZM182.27 10.20L182.27 34.50L175.76 34.50L175.76 10.20L182.27 10.20ZM175.38 3.91L175.38 3.91Q175.38 2.45 176.35 1.50Q177.33 0.56 179.01 0.56L179.01 0.56Q180.68 0.56 181.66 1.50Q182.65 2.45 182.65 3.91L182.65 3.91Q182.65 5.39 181.65 6.33Q180.65 7.28 179.01 7.28Q177.37 7.28 176.37 6.33Q175.38 5.39 175.38 3.91ZM186.67 22.44L186.67 22.17Q186.67 16.58 189.33 13.16Q192.00 9.75 196.51 9.75L196.51 9.75Q200.51 9.75 202.73 12.49L202.73 12.49L203.00 10.20L208.89 10.20L208.89 33.69Q208.89 36.88 207.44 39.24Q205.99 41.60 203.36 42.83Q200.73 44.07 197.21 44.07L197.21 44.07Q194.53 44.07 192.00 43.00Q189.46 41.93 188.16 40.25L188.16 40.25L191.03 36.30Q193.46 39.01 196.92 39.01L196.92 39.01Q199.50 39.01 200.94 37.63Q202.37 36.25 202.37 33.71L202.37 33.71L202.37 32.41Q200.13 34.95 196.47 34.95L196.47 34.95Q192.09 34.95 189.38 31.52Q186.67 28.10 186.67 22.44L186.67 22.44ZM193.16 22.64L193.16 22.64Q193.16 25.94 194.49 27.82Q195.81 29.69 198.13 29.69L198.13 29.69Q201.09 29.69 202.37 27.47L202.37 27.47L202.37 17.25Q201.07 15.03 198.17 15.03L198.17 15.03Q195.84 15.03 194.50 16.94Q193.16 18.84 193.16 22.64ZM234.51 34.50L227.96 34.50Q227.51 33.62 227.30 32.32L227.30 32.32Q224.95 34.95 221.17 34.95L221.17 34.95Q217.60 34.95 215.25 32.88Q212.91 30.82 212.91 27.67L212.91 27.67Q212.91 23.81 215.77 21.74Q218.63 19.68 224.05 19.65L224.05 19.65L227.04 19.65L227.04 18.26Q227.04 16.58 226.17 15.57Q225.31 14.55 223.44 14.55L223.44 14.55Q221.80 14.55 220.87 15.34Q219.94 16.13 219.94 17.50L219.94 17.50L213.45 17.50Q213.45 15.39 214.75 13.59Q216.05 11.79 218.43 10.77Q220.81 9.75 223.78 9.75L223.78 9.75Q228.27 9.75 230.91 12.01Q233.55 14.26 233.55 18.35L233.55 18.35L233.55 28.88Q233.57 32.34 234.51 34.12L234.51 34.12L234.51 34.50ZM222.59 29.99L222.59 29.99Q224.03 29.99 225.24 29.35Q226.45 28.71 227.04 27.63L227.04 27.63L227.04 23.45L224.61 23.45Q219.74 23.45 219.42 26.82L219.42 26.82L219.40 27.20Q219.40 28.41 220.25 29.20Q221.11 29.99 222.59 29.99ZM237.52 22.17L237.52 22.17Q237.52 16.49 240.07 13.12Q242.62 9.75 247.05 9.75L247.05 9.75Q250.60 9.75 252.91 12.40L252.91 12.40L252.91 0L259.42 0L259.42 34.50L253.56 34.50L253.25 31.92Q250.82 34.95 247.00 34.95L247.00 34.95Q242.71 34.95 240.12 31.57Q237.52 28.19 237.52 22.17ZM244.02 22.64L244.02 22.64Q244.02 26.05 245.21 27.87Q246.40 29.69 248.67 29.69L248.67 29.69Q251.67 29.69 252.91 27.16L252.91 27.16L252.91 17.56Q251.70 15.03 248.71 15.03L248.71 15.03Q244.02 15.03 244.02 22.64ZM275.64 34.95L275.64 34.95Q270.29 34.95 266.94 31.67Q263.58 28.39 263.58 22.93L263.58 22.93L263.58 22.30Q263.58 18.64 264.99 15.76Q266.41 12.87 269.00 11.31Q271.60 9.75 274.92 9.75L274.92 9.75Q279.91 9.75 282.77 12.89Q285.64 16.04 285.64 21.81L285.64 21.81L285.64 24.46L270.16 24.46Q270.47 26.84 272.06 28.28Q273.64 29.72 276.07 29.72L276.07 29.72Q279.82 29.72 281.93 27.00L281.93 27.00L285.12 30.57Q283.66 32.64 281.17 33.79Q278.67 34.95 275.64 34.95ZM274.90 15.00L274.90 15.00Q272.97 15.00 271.77 16.31Q270.56 17.61 270.23 20.04L270.23 20.04L279.26 20.04L279.26 19.52Q279.21 17.36 278.09 16.18Q276.97 15.00 274.90 15.00Z"></path></g></svg><svg id="slogan" viewBox="0 0 88.388671875 14.4140625" width="88.388671875" height="14.414062500000002" style="fill: rgb(255, 255, 255);" x="98.625" y="114.31666564941406" data-v-04588dbe=""><rect x="0" y="0" width="100%" height="100%" fill="none" data-v-04588dbe=""></rect><g data-v-04588dbe=""><path xmlns="http://www.w3.org/2000/svg" d="M8.55 6.04L8.55 8.41L2.93 8.41L2.93 14.22L0 14.22L0 0L9.26 0L9.26 2.37L2.93 2.37L2.93 6.04L8.55 6.04ZM19.41 14.22L16.56 14.22Q16.37 13.84 16.28 13.27L16.28 13.27Q15.25 14.41 13.61 14.41L13.61 14.41Q12.06 14.41 11.04 13.52Q10.02 12.62 10.02 11.25L10.02 11.25Q10.02 9.57 11.26 8.67Q12.51 7.77 14.86 7.76L14.86 7.76L16.16 7.76L16.16 7.16Q16.16 6.43 15.79 5.99Q15.41 5.55 14.60 5.55L14.60 5.55Q13.89 5.55 13.48 5.89Q13.08 6.23 13.08 6.83L13.08 6.83L10.25 6.83Q10.25 5.91 10.82 5.13Q11.39 4.35 12.42 3.90Q13.46 3.46 14.75 3.46L14.75 3.46Q16.70 3.46 17.85 4.44Q18.99 5.42 18.99 7.20L18.99 7.20L18.99 11.78Q19.00 13.28 19.41 14.05L19.41 14.05L19.41 14.22ZM14.23 12.26L14.23 12.26Q14.85 12.26 15.38 11.98Q15.91 11.70 16.16 11.23L16.16 11.23L16.16 9.41L15.11 9.41Q12.99 9.41 12.85 10.88L12.85 10.88L12.84 11.04Q12.84 11.57 13.21 11.91Q13.58 12.26 14.23 12.26ZM27.14 3.58L27.10 6.30Q26.52 6.22 26.08 6.22L26.08 6.22Q24.48 6.22 23.98 7.30L23.98 7.30L23.98 14.22L21.16 14.22L21.16 3.65L23.83 3.65L23.91 4.91Q24.76 3.46 26.26 3.46L26.26 3.46Q26.73 3.46 27.14 3.58L27.14 3.58ZM28.46 3.65L31.10 3.65L31.19 4.83Q32.31 3.46 34.23 3.46L34.23 3.46Q36.27 3.46 37.03 5.07L37.03 5.07Q38.14 3.46 40.21 3.46L40.21 3.46Q41.92 3.46 42.76 4.46Q43.60 5.46 43.60 7.47L43.60 7.47L43.60 14.22L40.77 14.22L40.77 7.48Q40.77 6.58 40.42 6.17Q40.07 5.75 39.18 5.75L39.18 5.75Q37.91 5.75 37.42 6.96L37.42 6.96L37.43 14.22L34.61 14.22L34.61 7.49Q34.61 6.57 34.25 6.16Q33.89 5.75 33.02 5.75L33.02 5.75Q31.82 5.75 31.28 6.75L31.28 6.75L31.28 14.22L28.46 14.22L28.46 3.65ZM56.46 14.22L50.94 14.22L50.94 0L55.92 0Q58.51 0 59.84 0.99Q61.18 1.98 61.18 3.90L61.18 3.90Q61.18 4.94 60.64 5.74Q60.11 6.53 59.15 6.90L59.15 6.90Q60.24 7.18 60.87 8.01Q61.50 8.84 61.50 10.04L61.50 10.04Q61.50 12.09 60.20 13.14Q58.89 14.20 56.46 14.22L56.46 14.22ZM56.55 8.03L53.87 8.03L53.87 11.87L56.38 11.87Q57.41 11.87 57.99 11.37Q58.57 10.88 58.57 10.01L58.57 10.01Q58.57 8.06 56.55 8.03L56.55 8.03ZM53.87 2.37L53.87 5.96L56.04 5.96Q58.25 5.92 58.25 4.19L58.25 4.19Q58.25 3.22 57.69 2.80Q57.13 2.37 55.92 2.37L55.92 2.37L53.87 2.37ZM75.26 0L75.26 14.22L72.33 14.22L66.63 4.86L66.63 14.22L63.70 14.22L63.70 0L66.63 0L72.34 9.38L72.34 0L75.26 0ZM83.35 14.22L77.82 14.22L77.82 0L82.80 0Q85.39 0 86.73 0.99Q88.07 1.98 88.07 3.90L88.07 3.90Q88.07 4.94 87.53 5.74Q86.99 6.53 86.04 6.90L86.04 6.90Q87.13 7.18 87.76 8.01Q88.39 8.84 88.39 10.04L88.39 10.04Q88.39 12.09 87.08 13.14Q85.77 14.20 83.35 14.22L83.35 14.22ZM83.44 8.03L80.75 8.03L80.75 11.87L83.26 11.87Q84.30 11.87 84.88 11.37Q85.46 10.88 85.46 10.01L85.46 10.01Q85.46 8.06 83.44 8.03L83.44 8.03ZM80.75 2.37L80.75 5.96L82.92 5.96Q85.14 5.92 85.14 4.19L85.14 4.19Q85.14 3.22 84.58 2.80Q84.01 2.37 82.80 2.37L82.80 2.37L80.75 2.37Z"></path></g></svg></svg>